<svg xmlns="http://www.w3.org/2000/svg" version="1.1" xmlns:xlink="http://www.w3.org/1999/xlink" xmlns:svgjs="http://svgjs.com/svgjs" width="29.1884mm" height="15.362885mm"><svg width="29.1884mm" height="15.362885mm" viewBox="0 0 29.1884 15.362885" version="1.1" id="SvgjsSvg1010" xmlns="http://www.w3.org/2000/svg" xmlns:svg="http://www.w3.org/2000/svg">
  <defs id="SvgjsDefs1009"></defs>
  <g id="SvgjsG1008" transform="translate(-47.68908,-95.09187)">
    <g id="SvgjsG1007" style="fill:#ffd24f;fill-opacity:1">
      <path id="SvgjsPath1006" style="font-size:9.87778px;fill:#ffd24f;fill-opacity:1;stroke-width:0.264583" d="m 49.637797,95.09187 v 5.17e-4 c -0.377827,0.0014 -0.713969,0.08003 -1.00769,0.236678 -0.296333,0.151459 -0.526802,0.368477 -0.691431,0.65164 -0.16463,0.276577 -0.247013,0.596413 -0.247013,0.958598 v 3.575487 0.01 h 5.16e-4 c 0.0015,0.36456 0.08337,0.68404 0.246497,0.95808 0.164629,0.27658 0.395098,0.49412 0.691431,0.65216 0.293721,0.15665 0.629863,0.2353 1.00769,0.23668 v 5.2e-4 c 0.0019,0 0.0037,0 0.0057,0 0.0014,0 0.0027,0 0.0041,0 v -5.2e-4 c 0.555124,-0.002 1.006485,-0.17277 1.353405,-0.51315 0.3556,-0.34243 0.569385,-0.82005 0.641822,-1.43247 l -0.820105,-0.15813 c -0.03951,0.41487 -0.164446,0.74117 -0.375171,0.97824 -0.203147,0.22936 -0.471548,0.34408 -0.805119,0.3452 -0.326678,-10e-4 -0.585232,-0.0931 -0.775147,-0.27647 -0.184385,-0.19097 -0.276468,-0.45753 -0.276468,-0.79996 v -3.575487 c 0,-0.34243 0.09208,-0.606265 0.276468,-0.79065 0.18981,-0.183264 0.448208,-0.274838 0.77463,-0.275952 0.333821,10e-4 0.60238,0.118978 0.805636,0.355017 0.210725,0.230481 0.33566,0.553033 0.375171,0.9679 l 0.820105,-0.167432 c -0.07244,-0.605837 -0.286222,-1.080223 -0.641822,-1.422652 -0.34692,-0.340375 -0.798281,-0.511105 -1.353405,-0.513147 v -5.17e-4 c -0.0014,0 -0.0027,-2e-6 -0.0041,0 -0.0019,-4e-6 -0.0037,0 -0.0057,0 z m 4.790405,0.0098 v 5.16e-4 c -0.377819,0.0014 -0.713456,0.08003 -1.007173,0.236678 -0.296333,0.15146 -0.526802,0.368994 -0.691431,0.652157 -0.163097,0.274003 -0.244978,0.590239 -0.246497,0.948263 h -5.16e-4 v 0.0098 3.555856 0.01 h 5.16e-4 c 0.0015,0.36456 0.08338,0.68404 0.246497,0.95809 0.164629,0.27657 0.395098,0.49411 0.691431,0.65215 0.293716,0.15665 0.629354,0.23478 1.007173,0.23616 v 5.2e-4 c 0.0018,0 0.0034,0 0.0052,0 0.0016,0 0.0031,0 0.0047,0 v -5.2e-4 c 0.384293,-0.001 0.720463,-0.0795 1.00769,-0.23616 0.296333,-0.15804 0.526801,-0.37558 0.691431,-0.65215 0.16312,-0.27405 0.245001,-0.59353 0.246497,-0.95809 h 5.16e-4 v -0.01 -3.555856 -0.0098 h -5.16e-4 c -0.0015,-0.358024 -0.0834,-0.67426 -0.246497,-0.948263 -0.16463,-0.283163 -0.395098,-0.500697 -0.691431,-0.652157 -0.287227,-0.156669 -0.623396,-0.235315 -1.00769,-0.236678 v -5.16e-4 c -0.0016,0 -0.0031,5.14e-4 -0.0047,5.16e-4 -0.0018,-3e-6 -0.0034,-5.16e-4 -0.0052,-5.16e-4 z M 57.520003,95.25 v 6.96392 h 0.63252 0.26665 0.711068 c 0.38194,0 0.717942,-0.0791 1.00769,-0.2372 0.296333,-0.15804 0.526801,-0.37558 0.691431,-0.65216 0.163123,-0.27404 0.245004,-0.59352 0.246497,-0.95808 h 5.16e-4 v -0.01 -3.259754 c 0,-0.362185 -0.08238,-0.681504 -0.247013,-0.958081 -0.16463,-0.283163 -0.395098,-0.500181 -0.691431,-0.65164 C 59.848183,95.329151 59.512181,95.25 59.130241,95.25 h -0.711068 -0.26665 z m 4.69222,0 v 6.96392 h 0.503846 0.394807 2.340943 v -0.78032 h -2.340943 v -2.291848 h 1.748214 v -0.799951 h -1.748214 v -2.311487 h 2.242241 V 95.25 h -2.242241 -0.296105 z m -7.77937,0.63252 c 0.326896,9.15e-4 0.58238,0.09249 0.765845,0.275952 0.19097,0.184385 0.286804,0.44822 0.286804,0.790649 v 3.555859 c 0,0.34243 -0.09583,0.60898 -0.286804,0.79995 -0.183465,0.18346 -0.438949,0.27503 -0.765845,0.27595 -0.326672,-10e-4 -0.585234,-0.0926 -0.775146,-0.27595 -0.184385,-0.19097 -0.276469,-0.45752 -0.276469,-0.79995 v -3.555859 c 0,-0.342429 0.09208,-0.606264 0.276469,-0.790649 0.189912,-0.183364 0.448474,-0.274936 0.775146,-0.275952 z m 3.98632,0.147794 h 0.711068 c 0.329259,0 0.58611,0.09208 0.770495,0.276469 0.184386,0.184385 0.276469,0.447703 0.276469,0.790133 v 3.259754 c 0,0.34242 -0.09208,0.60898 -0.276469,0.79995 -0.184385,0.18438 -0.441236,0.27698 -0.770495,0.27698 h -0.711068 z"></path>
    </g>
    <path id="SvgjsPath1005" style="font-style:normal;font-variant:normal;font-weight:normal;font-stretch:normal;font-size:4.93889px;font-family:'Akshar Light';-inkscape-font-specification:'Akshar Light, ';fill:#00467f;fill-opacity:1;stroke-width:0.264583" d="m 67.560734,97.095882 0.641821,3.481958 h 0.133326 0.311092 0.10852 l 0.486792,-2.503206 0.486275,2.503206 h 0.108521 0.306441 0.133325 l 0.642338,-3.481958 h -0.439766 l -0.494027,2.678906 -0.528133,-2.678906 h -0.0248 -0.380338 -0.02481 l -0.5302,2.669605 -0.49196,-2.669605 z m 3.827157,0 v 3.481958 h 0.449585 v -3.481958 z m 0.894002,0 v 0.390157 h 0.800468 v 3.091801 h 0.449068 v -3.091801 h 0.800468 v -0.390157 h -0.800468 -0.449068 z m 2.444812,0 v 3.481958 h 0.449585 v -1.546159 h 1.061951 v 1.546159 h 0.449068 v -3.481958 h -0.449068 v 1.55081 H 75.17629 v -1.55081 z"></path>
    <path id="SvgjsPath1004" style="font-style:normal;font-variant:normal;font-weight:normal;font-stretch:normal;font-size:9.87778px;font-family:'Akshar Light';-inkscape-font-specification:'Akshar Light, ';fill:#ee3a43;fill-opacity:1;stroke-width:0.264583" d="m 47.689079,103.34253 v 6.96392 h 0.632003 0.26665 0.711068 c 0.38194,0 0.717942,-0.0792 1.00769,-0.2372 0.296333,-0.15804 0.526801,-0.37506 0.691431,-0.65164 0.163123,-0.27405 0.245004,-0.59404 0.246496,-0.9586 h 5.17e-4 v -0.01 -3.25923 c 0,-0.36218 -0.08238,-0.68202 -0.247013,-0.9586 -0.16463,-0.28316 -0.395098,-0.50018 -0.691431,-0.65164 -0.289748,-0.15804 -0.62575,-0.23719 -1.00769,-0.23719 h -0.711068 -0.26665 z m 4.691703,0 v 5.26479 0.01 h 5.17e-4 c 0.0015,0.35809 0.0834,0.67755 0.246496,0.95808 0.16463,0.27658 0.395098,0.49412 0.691431,0.65216 0.290973,0.14872 0.623844,0.22365 0.997355,0.22634 v 10e-4 c 0.0034,0 0.0065,-5.1e-4 0.0098,-5.2e-4 0.0035,1e-5 0.0068,5.2e-4 0.01033,5.2e-4 v -10e-4 c 0.373379,-0.003 0.70304,-0.0776 0.987537,-0.22634 0.296333,-0.15804 0.526801,-0.37558 0.69143,-0.65216 0.1631,-0.28053 0.244981,-0.59999 0.246497,-0.95808 h 5.17e-4 v -0.01 -5.26479 h -0.898654 v 5.26479 c 0,0.33585 -0.0926,0.59917 -0.276985,0.79014 -0.182451,0.18245 -0.436376,0.27455 -0.760677,0.27647 -0.324125,-0.002 -0.581113,-0.0941 -0.769979,-0.27647 -0.184385,-0.19097 -0.276986,-0.45429 -0.276986,-0.79014 v -5.26479 z m 5.067391,0 v 6.96392 h 0.898653 v -2.95331 h 0.659391 l 1.099158,2.95331 h 0.91829 l -1.154451,-3.10369 c 0.06014,-0.0237 0.120337,-0.0475 0.176733,-0.077 0.296333,-0.15804 0.526801,-0.37558 0.691431,-0.65216 0.1631,-0.28053 0.244981,-0.59998 0.246497,-0.95808 h 5.16e-4 v -0.01 -0.31574 -0.0103 h -5.16e-4 c -0.0016,-0.35782 -0.08348,-0.67439 -0.246497,-0.94827 -0.16463,-0.28316 -0.395098,-0.50018 -0.691431,-0.65164 -0.287227,-0.15667 -0.623396,-0.23531 -1.00769,-0.23667 v -5.2e-4 h -0.0098 -0.681612 -0.315743 z m 4.563546,0 v 6.96392 h 0.898653 v -3.09181 h 2.123901 v 3.09181 h 0.898653 v -6.96392 h -0.898653 v 3.10162 h -2.123901 v -3.10162 z m 6.509163,0 -1.698604,6.96392 h 0.888834 l 0.340031,-1.39268 h 1.856735 l 0.341581,1.39268 h 0.879533 l -1.699121,-6.96392 h -0.01964 -0.869198 z m 3.447335,0 v 6.96392 h 0.89917 v -5.14439 l 1.145666,5.14439 h 0.02946 0.750859 0.03979 l 1.145667,-5.17902 v 5.17902 h 0.898653 v -6.96392 h -0.503845 -0.394808 -0.385506 l -1.174089,5.27255 -1.166854,-5.27255 h -0.384989 -0.405143 z m -23.380485,0.78031 H 49.2988 c 0.329259,0 0.58611,0.0921 0.770495,0.27647 0.184385,0.18439 0.276469,0.44822 0.276469,0.79065 v 3.25923 c 0,0.34243 -0.09208,0.6095 -0.276469,0.80047 -0.184385,0.18439 -0.441236,0.27647 -0.770495,0.27647 h -0.711068 z m 9.759094,0 h 0.681612 c 0.329259,0 0.586111,0.0921 0.770496,0.27647 0.19097,0.18439 0.286287,0.44822 0.286287,0.79065 v 0.31574 c 0,0.33585 -0.09532,0.59917 -0.286287,0.79014 -0.184385,0.19097 -0.441237,0.2868 -0.770496,0.2868 h -0.681612 z m 10.629842,0.99581 0.742074,3.02462 h -1.480013 z"></path>
    <path style="fill:#4d4d4d;stroke-width:0.264583" d="m 68.391779,95.249999 h 7.9375" id="SvgjsPath1003"></path>
  </g>
  <g id="SvgjsG1002" style="display:inline" transform="translate(-47.68908,-95.09187)">
    <rect style="fill:#00467f;fill-opacity:1;stroke-width:0.33078" id="SvgjsRect1001" width="9.3891287" height="0.78660858" x="67.488045" y="95.249214"></rect>
    <rect style="display:inline;fill:#00467f;fill-opacity:1;stroke-width:0.33078" id="SvgjsRect1000" width="9.3891287" height="0.78660858" x="67.48288" y="101.42427"></rect>
  </g>
</svg><style>@media (prefers-color-scheme: light) { :root { filter: none; } }
</style></svg>